# xmcd
#
# Track frame offsets:
#	150
#	35887
#	63440
#	96457
#	123780
#	149017
#	181157
#	206497
#	230300
#	260735
#
# Disc length: 3838 seconds
#
# Revision: 1
# Processed by: cddbd v1.5.2PL0 Copyright (c) Steve Scherf et al.
# Submitted via: audiograbber 1.83.01
#
DISCID=960efc0a
DTITLE=Various Artist - Star Funk Vol. 40
DYEAR=1996
DGENRE=Disco
TTITLE0=Sapphire - Make Love To The Music
TTITLE1=Sound Experience - You've Broken My Heart
TTITLE2=Rocco - One Passionate Night
TTITLE3=Prince Charles And The City Beat Band - Cash (Cash Money)
TTITLE4=Somethin Special - Come Make It Feel Good (Tee's Mix)
TTITLE5=Gil Silverbird - Fools Paradise
TTITLE6=THP Orchestra - Two Hot For Love
TTITLE7=Valerie Ford - Keep Us Feeling Alive
TTITLE8=Taka Boom - I Love The Nightlife (live)
TTITLE9=Fric - Erreur Erotique
EXTD=
EXTT0=
EXTT1=
EXTT2=
EXTT3=
EXTT4=
EXTT5=
EXTT6=
EXTT7=
EXTT8=
EXTT9=
PLAYORDER=
